<?xml version="1.0" encoding="utf-8"?>
<!-- Generator: Adobe Illustrator 25.2.0, SVG Export Plug-In . SVG Version: 6.00 Build 0)  -->
<svg version="1.1" id="Capa_1" xmlns="http://www.w3.org/2000/svg" xmlns:xlink="http://www.w3.org/1999/xlink" x="0px" y="0px"
	 viewBox="0 0 353.3 425.6" style="enable-background:new 0 0 353.3 425.6;" xml:space="preserve">
<style type="text/css">
	.st0{fill:#FFFFFF;}
	.st1{clip-path:url(#SVGID_2_);fill:none;stroke:#00090F;stroke-width:1.13;stroke-miterlimit:10;}
	.st2{fill:#005073;}
	.st3{clip-path:url(#SVGID_4_);fill:#005073;}
	.st4{clip-path:url(#SVGID_6_);fill:#005073;}
</style>
<polygon class="st0" points="323.7,353.1 72,353.1 119.3,141.6 323.7,147.9 "/>
<g>
	<defs>
		<rect id="SVGID_1_" width="353.3" height="425.6"/>
	</defs>
	<clipPath id="SVGID_2_">
		<use xlink:href="#SVGID_1_"  style="overflow:visible;"/>
	</clipPath>
	<path class="st1" d="M353.3,374.1"/>
	<path class="st1" d="M353.3,79.9"/>
	<path class="st1" d="M353.3,0.9"/>
</g>
<rect x="7.4" y="386.8" transform="matrix(0.3733 -0.9277 0.9277 0.3733 -351.3861 258.414)" class="st2" width="16.3" height="5.1"/>
<polygon class="st2" points="0,421.4 0,421.4 4.7,423.3 10.8,408.2 6.1,406.3 "/>
<g>
	<defs>
		<rect id="SVGID_3_" width="353.3" height="425.6"/>
	</defs>
	<clipPath id="SVGID_4_">
		<use xlink:href="#SVGID_3_"  style="overflow:visible;"/>
	</clipPath>
	<path class="st3" d="M133.4,26.9c-5.1-2-7.3-8.7-4.9-14.9c2.4-6.2,8.6-9.5,13.8-7.5c5.1,2,7.3,8.7,4.9,14.9
		C144.7,25.6,138.5,28.9,133.4,26.9 M140.4,30.7c0-0.2,0-0.3,0.1-0.3C140.4,30.4,140.4,30.5,140.4,30.7 M146.5,27
		c1.7-1.7,3.2-3.7,4.2-6.2c3.3-8.2,0.1-17.1-7-20c-7.1-2.8-15.5,1.6-18.7,9.8c-3.3,8.2-0.1,17.1,7,20c2.7,1.1,5.7,1.1,8.5,0.2
		c-0.3,4.6,2.1,47.3,1.5,48.7L152,54l0.5-10.9C152.5,43.2,144.7,40,146.5,27"/>
	<path class="st3" d="M183.2,33.7c-2.5,6.2-8.6,9.5-13.8,7.5c-5.1-2-7.3-8.7-4.9-14.9c2.5-6.2,8.6-9.5,13.8-7.5
		C183.4,20.9,185.6,27.5,183.2,33.7 M179.7,15.1c-7.1-2.8-15.5,1.6-18.8,9.8c-1.5,3.9-1.6,8-0.5,11.5c-1.2,1.2-2.6,2.5-5.6,5.3
		c-0.2,3-0.2,10.3-0.2,10.3c2.3-3.6,7.1-9,8.5-10.6c0.1-0.1,0.1-0.1,0.2-0.2c-0.1,0.1-0.1,0.1-0.2,0.2c1.3,1.5,2.9,2.8,4.8,3.5
		c7.1,2.8,15.5-1.6,18.8-9.8C189.9,26.9,186.8,18,179.7,15.1"/>
	<path class="st3" d="M115.9,76.4c-2,3.7-3.4,6.7-3,13.6c0.9-0.1,26.1-25,26.1-25l-1-14.2C136.2,52.4,118.8,70.9,115.9,76.4"/>
</g>
<rect x="116.6" y="113.1" transform="matrix(0.3712 -0.9286 0.9286 0.3712 -28.9469 188.4935)" class="st2" width="16.3" height="5.1"/>
<rect x="126.7" y="87.6" transform="matrix(0.3716 -0.9284 0.9284 0.3716 1.0724 181.8234)" class="st2" width="16.3" height="5.1"/>
<g>
	<defs>
		<rect id="SVGID_5_" width="353.3" height="425.6"/>
	</defs>
	<clipPath id="SVGID_6_">
		<use xlink:href="#SVGID_5_"  style="overflow:visible;"/>
	</clipPath>
	<path class="st4" d="M163.4,208.4c-3.9-9.6-9.1-22.9-15.8-40c-5.1,13.6-10.2,27-15.4,40.1l-0.4,1h32.1L163.4,208.4z"/>
	<path class="st4" d="M310.7,347.6h-8.4l-2.2-12.9c-3.2,4.2-7.2,7.4-12,9.6c-4.8,2.2-10.3,3.4-16.5,3.4c-8.2,0-15.5-1.8-21.7-5.5
		c-6.2-3.6-11.1-8.7-14.4-15.2c-3.4-6.5-5.1-14-5.1-22.5c0-8.5,1.7-16.1,5.1-22.6c3.4-6.5,8.2-11.6,14.4-15.2
		c6.2-3.6,13.5-5.4,21.8-5.4c6.9,0,13.1,1.2,18.5,3.6c5.4,2.4,9.7,5.8,13.1,10.2c3.3,4.4,5.5,9.4,6.5,15.2h-10.6
		c-0.7-4-2.4-7.6-5-10.6c-2.6-3-5.9-5.3-9.7-7c-3.9-1.6-8.1-2.4-12.7-2.4c-6.1,0-11.5,1.4-16.2,4.2c-4.7,2.8-8.2,6.8-10.7,11.9
		c-2.5,5.2-3.7,11.2-3.7,18.2c0,6.9,1.3,12.9,3.8,18.1c2.5,5.2,6.1,9.2,10.7,12c4.6,2.8,10,4.2,16.1,4.2c5.4,0,10.3-1.1,14.9-3.4
		c4.5-2.2,8.1-5.4,10.8-9.5c2.7-4.1,4-8.7,4-13.8h-27.8v-8.8h37.1V347.6z M194.1,347.6h-18.4l-9.2-35.9c-3.3-13.7-5.6-23.9-7-30.6
		c-2,9.9-4.4,20.1-7,30.6l-9.2,35.9h-18.3l-23.9-86.5h17l8.9,34.8l1.2,4.9c0.2,1.1,1.1,4.6,2.7,10.7c1.5,6.1,2.9,11.9,4,17.4
		c2.2-10.4,4.6-21.4,7.4-33l8.8-34.7H168l8.8,34.7c2.3,9.2,4.7,20.3,7.3,33.2c1.9-8.7,4.6-19.8,7.9-33l9.1-34.8h16.9L194.1,347.6z
		 M142.1,157.4h11.4l35,86.5h-10.8l-10.1-25.1h-39.3l-10,25.1h-10.7L142.1,157.4z M210.9,157.4l8.9,34.9l1.2,4.9
		c0.2,1.1,1.1,4.6,2.7,10.7c1.5,6.1,2.9,11.9,4,17.4c2.2-10.4,4.6-21.4,7.4-33l8.8-34.7h16.8l8.8,34.7c2.3,9.2,4.7,20.3,7.3,33.2
		c1.9-8.7,4.6-19.8,7.9-33l9.1-34.9h16.9l-23.8,86.5h-18.4l-9.2-35.9c-3.3-13.7-5.6-23.9-7-30.6c-2,9.9-4.4,20.1-7,30.6l-9.2,35.9
		h-18.2l-23.9-86.5H210.9z M115.8,131.1L19.1,373.8h317.8V131.1H115.8z"/>
</g>
</svg>
